<svg width="1440" height="180" viewBox="0 0 1440 180" fill="none" xmlns="http://www.w3.org/2000/svg">
<g id="Frame 389" clip-path="url(#clip0_250_40)">
<path id="Vector 7" d="M0.811601 -3.64749C-17.1919 85.8848 270.063 27.108 292.867 172C371.883 99.554 568.62 -1.87035 723.45 172C799.465 95.9089 990.702 -10.6186 1147.53 172C1176.46 89.9845 1452.09 149.446 1439.59 -18" stroke="#4B4B4B" stroke-width="2" stroke-dasharray="20 10"/>
<g id="g1">
<g id="group-R5">
<path id="path2" d="M443.421 110.792C443.654 110.857 443.887 110.923 444.12 110.988C444.491 111.092 444.823 111.102 445.12 111.033C455.787 125.802 485.583 131.565 508.34 125.999C534.076 119.704 550.161 98.9368 544.268 79.6141C541.03 68.9969 531.829 61.0252 519.928 57.0411C519.849 53.0726 520.807 45.3367 528.381 39.3331C528.969 39.7561 529.715 40.0092 530.527 40.0092C532.422 40.0092 533.957 38.6343 533.957 36.938C533.957 35.242 532.422 33.8671 530.527 33.8671C528.633 33.8671 527.098 35.242 527.098 36.938C527.098 37.8105 527.504 38.598 528.157 39.1571C520.589 45.1718 519.571 52.8973 519.631 56.9429C515.374 55.5468 510.778 54.6587 505.989 54.3389C506.828 50.4482 508.945 45.7309 513.944 41.7682C514.532 42.1909 515.278 42.4442 516.091 42.4442C517.985 42.4442 519.52 41.0693 519.52 39.3731C519.52 37.6771 517.985 36.3019 516.091 36.3019C514.197 36.3019 512.662 37.6771 512.662 39.3731C512.662 40.2456 513.068 41.0331 513.72 41.5921C508.669 45.607 506.535 50.3836 505.693 54.3199C500.046 53.971 494.137 54.4122 488.206 55.7424C488.177 55.7488 488.148 55.7551 488.12 55.7615C488.082 55.7702 488.044 55.7787 488.006 55.7874C487.929 55.8049 487.852 55.8223 487.775 55.8401C487.736 55.8491 487.697 55.8581 487.659 55.8671C487.616 55.8771 487.574 55.8872 487.532 55.897C487.475 55.9102 487.42 55.9235 487.364 55.9367C487.332 55.9444 487.3 55.9521 487.269 55.9595C487.181 55.9806 487.094 56.0018 487.006 56.0233L486.999 56.0249C486.89 56.0516 486.782 56.0783 486.673 56.1053L486.661 56.1085C486.555 56.1352 486.448 56.162 486.342 56.1892L486.336 56.1908C485.017 56.5283 483.701 56.9092 482.391 57.3315C487.93 51.7744 495.213 38.8672 496.414 35.6769C498.008 31.4429 495.468 26.8537 490.74 25.4261C486.012 23.9988 480.887 26.274 479.293 30.5077C478.284 33.1882 476.055 43.6529 475.754 51.3345C471.026 44.9375 463.139 37.1331 460.738 35.3259C456.918 32.4515 451.219 32.8943 448.01 36.3152C444.8 39.736 445.294 44.839 449.114 47.7135C452.196 50.0326 467.701 58.6203 475.262 60.0548C455.92 68.612 439.762 85.4499 441.196 100.822C438.41 101.915 436.3 101.792 433.71 102.399C433.217 102.515 432.735 102.707 432.455 103.121C429.557 107.414 441.373 110.217 443.421 110.792Z" fill="#B3E2CC"/>
<path id="path3" d="M544.268 79.6141C541.03 68.9969 531.829 61.0252 519.928 57.0411C519.959 58.6235 520.155 59.6072 520.163 59.6429C520.178 59.7147 520.126 59.784 520.045 59.7978L520.017 59.8002C519.948 59.8002 519.886 59.7559 519.873 59.6924C519.865 59.6554 519.656 58.6124 519.631 56.9429C515.374 55.5468 510.778 54.6587 505.989 54.3389C505.05 58.6931 505.712 62.0115 505.726 62.0782C505.742 62.15 505.689 62.2191 505.609 62.2328L505.581 62.2352C505.511 62.2352 505.449 62.191 505.436 62.1277C505.422 62.0605 504.753 58.7143 505.693 54.3199C500.836 54.0197 495.784 54.3069 490.693 55.2384L490.694 55.2363C489.722 55.4139 488.749 55.6151 487.775 55.8401C487.736 55.8491 487.697 55.8581 487.659 55.8671C487.616 55.8772 487.574 55.8872 487.532 55.897C487.475 55.9103 487.42 55.9235 487.364 55.9367C487.332 55.9444 487.3 55.9521 487.269 55.9595C487.181 55.9807 487.094 56.0018 487.006 56.0233L486.999 56.0249C486.89 56.0516 486.782 56.0783 486.673 56.1053L486.661 56.1085C486.555 56.1353 486.448 56.162 486.342 56.1893L486.336 56.1908C485.017 56.5283 483.7 56.9101 482.389 57.3328C481.1 58.6256 479.906 59.5204 478.904 59.802C478.37 60.2295 477.444 60.3388 476.239 60.2044C475.931 60.1702 475.604 60.1197 475.262 60.0548C455.92 68.612 439.762 85.4499 441.196 100.822C438.41 101.915 436.3 101.792 433.71 102.399C433.217 102.515 432.735 102.707 432.455 103.121C429.557 107.414 441.373 110.217 443.421 110.792C443.654 110.858 443.887 110.923 444.12 110.988C444.491 111.092 444.823 111.102 445.12 111.033C448.962 116.353 455.286 120.503 462.869 123.377L462.874 123.379C463.139 123.48 463.405 123.578 463.674 123.676L463.685 123.68C463.769 123.71 463.853 123.741 463.938 123.771L463.955 123.777C464.134 123.841 464.313 123.904 464.493 123.966L464.495 123.967C464.583 123.998 464.671 124.028 464.758 124.058L464.773 124.063C465.045 124.156 465.318 124.248 465.593 124.337L465.595 124.338C474.722 127.324 485.352 128.572 495.572 127.911L495.573 127.912C499.639 127.65 503.64 127.084 507.456 126.206L507.45 126.202C507.747 126.134 508.046 126.071 508.34 125.999C534.076 119.704 550.161 98.9368 544.268 79.6141Z" fill="#F2D455"/>
<path id="path4" d="M441.196 100.822C438.41 101.915 436.3 101.792 433.71 102.399C433.217 102.515 432.735 102.707 432.455 103.121C429.557 107.414 441.373 110.217 443.421 110.792C443.654 110.858 443.887 110.923 444.12 110.988C444.491 111.092 444.823 111.102 445.12 111.033C443.724 109.1 442.655 107.013 441.973 104.776C441.576 103.473 441.32 102.153 441.196 100.822Z" fill="#17172C"/>
<path id="path5" d="M464.661 106.654C458.788 93.1415 459.427 78.6551 464.214 66.0682C457.877 70.2185 452.334 75.1988 448.266 80.5488C447.131 89.5169 448.162 98.8918 452.052 107.84C454.518 113.515 457.956 118.606 462.074 123.07C467.709 125.298 474.079 126.805 480.666 127.548C473.873 121.907 468.244 114.897 464.661 106.654Z" fill="#17172C"/>
<path id="path6" d="M478.904 59.802C478.369 60.2295 477.443 60.3388 476.238 60.2044C470.34 73.4649 469.072 89.2254 475.427 103.846C479.715 113.711 486.934 121.811 495.573 127.912C499.639 127.65 503.639 127.084 507.456 126.206C499.139 120.168 492.204 112.248 488.037 102.661C481.066 86.6226 483.269 69.2129 490.694 55.2363C489.722 55.4139 488.749 55.6151 487.775 55.8401C487.736 55.8491 487.697 55.8581 487.658 55.8671C487.616 55.8772 487.574 55.8872 487.531 55.897C487.475 55.9102 487.42 55.9235 487.363 55.9367C487.332 55.9444 487.3 55.9521 487.268 55.9595C487.181 55.9807 487.093 56.0018 487.006 56.0233L486.998 56.0249C486.89 56.0516 486.781 56.0783 486.673 56.1053L486.66 56.1085C486.554 56.1352 486.448 56.162 486.342 56.1892L486.336 56.1908C485.017 56.5283 483.7 56.9101 482.389 57.3328C481.1 58.6256 479.906 59.5203 478.904 59.802Z" fill="#17172C"/>
<path id="path7" d="M505.435 62.1277C505.449 62.191 505.511 62.2352 505.58 62.2352L505.608 62.2328C505.688 62.219 505.741 62.15 505.726 62.0782C505.712 62.0115 505.05 58.6931 505.989 54.3389C506.827 50.4482 508.945 45.7309 513.944 41.7682C514.531 42.1909 515.278 42.4442 516.09 42.4442C517.984 42.4442 519.52 41.0693 519.52 39.3731C519.52 37.6771 517.984 36.3019 516.09 36.3019C514.196 36.3019 512.661 37.6771 512.661 39.3731C512.661 40.2456 513.067 41.0331 513.719 41.5921C508.668 45.607 506.535 50.3837 505.693 54.3199C504.752 58.7143 505.421 62.0605 505.435 62.1277Z" fill="#17172C"/>
<path id="path8" d="M520.018 59.8001L520.046 59.7978C520.126 59.784 520.178 59.7146 520.163 59.6429C520.156 59.6072 519.959 58.6235 519.928 57.0411C519.849 53.0726 520.807 45.3367 528.381 39.3331C528.969 39.7561 529.715 40.0092 530.528 40.0092C532.422 40.0092 533.957 38.6343 533.957 36.938C533.957 35.242 532.422 33.8671 530.528 33.8671C528.634 33.8671 527.098 35.242 527.098 36.938C527.098 37.8105 527.505 38.598 528.157 39.1571C520.589 45.1718 519.571 52.8973 519.631 56.9429C519.656 58.6124 519.865 59.6553 519.873 59.6924C519.886 59.7559 519.948 59.8001 520.018 59.8001Z" fill="#17172C"/>
<path id="path9" d="M503.604 80.5345C500.448 80.9903 498.301 83.6475 498.809 86.4696C499.317 89.2916 502.288 91.2097 505.444 90.7539C508.601 90.298 510.747 87.6409 510.239 84.8188C509.731 81.9968 506.761 80.0787 503.604 80.5345Z" fill="#17172C"/>
<path id="path10" d="M497.346 90.5373C494.811 90.9034 493.013 92.6328 493.331 94.4C493.65 96.1672 495.963 97.303 498.499 96.9367C501.035 96.5706 502.832 94.8412 502.514 93.074C502.196 91.3068 499.882 90.171 497.346 90.5373Z" fill="#EF353C"/>
<path id="path11" d="M535.941 81.2024C535.432 78.3803 532.462 76.4622 529.305 76.9181C526.149 77.3739 524.002 80.031 524.51 82.8531C525.018 85.6752 527.989 87.5932 531.145 87.1374C534.302 86.6816 536.449 84.0244 535.941 81.2024Z" fill="#17172C"/>
<path id="path12" d="M538.757 84.6521C536.221 85.0182 534.423 86.7478 534.742 88.515C535.06 90.2822 537.373 91.4178 539.909 91.0517C542.445 90.6856 544.242 88.956 543.924 87.1888C543.606 85.4216 541.292 84.286 538.757 84.6521Z" fill="#EF353C"/>
<path id="path13" d="M520.667 87.5906C520.505 87.6139 520.396 87.7497 520.422 87.894C520.616 88.9727 519.943 89.9701 518.921 90.1178C517.896 90.2652 516.91 89.5076 516.716 88.4292C516.69 88.2849 516.538 88.1859 516.377 88.21C516.216 88.2333 516.107 88.3691 516.133 88.5134C516.357 89.7615 517.455 90.6655 518.667 90.6655C518.782 90.6655 518.899 90.6573 519.016 90.6403C520.359 90.4463 521.251 89.1765 521.005 87.8098C520.979 87.6655 520.828 87.5668 520.667 87.5906Z" fill="#17172C"/>
<path id="path14" d="M478.905 59.802C478.499 59.9163 478.125 59.9298 477.789 59.8285C476.054 59.3046 475.581 55.7871 475.755 51.3345C471.027 44.9375 463.14 37.1331 460.738 35.3259C456.919 32.4515 451.22 32.8943 448.01 36.3152C444.801 39.736 445.295 44.839 449.115 47.7135C452.197 50.0326 467.702 58.6203 475.263 60.0548C475.605 60.1196 475.932 60.1702 476.24 60.2043C477.444 60.3388 478.37 60.2295 478.905 59.802Z" fill="#BFE6D5"/>
<path id="path15" d="M492.098 64.5406C493.367 65.4694 496.001 64.4641 497.981 62.2948C499.961 60.1257 500.537 57.6139 499.267 56.6851C497.998 55.7559 495.364 56.7613 493.384 58.9306C491.404 61.0999 490.829 63.6114 492.098 64.5406Z" fill="#FCE477"/>
<path id="path16" d="M491.636 66.7278C490.029 66.4348 488.221 68.4225 487.596 71.1675C486.971 73.9128 487.767 76.3759 489.373 76.669C490.98 76.962 492.788 74.9743 493.413 72.229C494.037 69.484 493.242 67.0209 491.636 66.7278Z" fill="#FCE477"/>
<path id="path17" d="M495.042 67.114C494.625 68.9469 495.99 70.7437 498.091 71.127C500.192 71.5106 502.233 70.3356 502.65 68.5027C503.068 66.6699 501.702 64.873 499.601 64.4897C497.5 64.1062 495.459 65.2812 495.042 67.114Z" fill="#FCE477"/>
</g>
</g>
</g>
<defs>
<clipPath id="clip0_250_40">
<rect width="1440" height="180" fill="white"/>
</clipPath>
</defs>
</svg>
